With: Malin Ek, Sverre Anker Ousdal and Marie Göranzon

John, een lichtzinnige getrouwde man, wordt verliefd op Clara, een jonge dichteres. Dit culmineert in een romance en John en Clara nemen een appartement in een slechte buurt van de stad. Noch John's echtgenote, noch Clara's ex-vriend is geïnteresseerd in de affaire. Maar dan gebeuren er vreemde dingen in het appartement. Spullen liggen niet meer op hun vertrouwde plek, het gas begint zomaar te lekken enz. Door alle spanning die dit oplevert gaat Clara's gezondheid zienderogen achteruit, en het blijkt nog maar het begin van naderend onheil..

John and Carl have a small publishing company. One day John meets the poet Clara who recently made her debut...

------------------------ Dutch Friends ------------------------
---------------------------------------------------------------
- Bezoek ook eens mijn vrienden op:  http://www.Film-Test.nl --
----- voor mijn Nederlandse Sync. ondertitels ---- en meer ----
------- http://www.Film-Test.nl ---- voor Films en meer -------
---------------------------------------------------------------

General:

Complete name                    : Falsk som Vatten\Falsk som Vatten.avi
Format                           : AVI
Format/Info                      : Audio Video Interleave
File size                        : 1.57 GiB
Duration                         : 1h 35mn
Overall bit rate                 : 2 339 Kbps

Video:

Format                           : MPEG-4 Visual
Format profile                   : Simple@L3
Format settings, BVOP            : No
Format settings, QPel            : No
Format settings, GMC             : No warppoints
Format settings, Matrix          : Default (H.263)
Codec ID                         : XVID
Codec ID/Hint                    : XviD
Duration                         : 1h 35mn
Bit rate                         : 1 881 Kbps
Width                            : 704 pixels
Height                           : 396 pixels
Display aspect ratio             : 16:9
Frame rate                       : 25.000 fps
Color space                      : YUV
Chroma subsampling               : 4:2:0
Bit depth                        : 8 bits
Scan type                        : Progressive
Compression mode                 : Lossy
Bits/(Pixel*Frame)               : 0.270
Stream size                      : 1.26 GiB (80%)
Writing library                  : XviD 1.1.2 (UTC 2006-11-01)

Audio:

Format                           : AC-3
Format/Info                      : Audio Coding 3
Mode extension                   : CM (complete main)
Codec ID                         : 2000
Duration                         : 1h 35mn
Bit rate mode                    : Constant
Bit rate                         : 448 Kbps
Channel(s)                       : 6 channels
Channel positions                : Front: L C R, Side: L R, LFE
Sampling rate                    : 48.0 KHz
Bit depth                        : 16 bits
Compression mode                 : Lossy
Stream size                      : 307 MiB (19%)
Alignment                        : Aligned on interleaves
Interleave, duration             : 32 ms (0.80 video frame)

